<?xml version="1.0" encoding="utf-8"?>
<!-- Generator: Adobe Illustrator 16.0.0, SVG Export Plug-In . SVG Version: 6.00 Build 0)  -->
<!DOCTYPE svg PUBLIC "-//W3C//DTD SVG 1.1//EN" "http://www.w3.org/Graphics/SVG/1.1/DTD/svg11.dtd">
<svg version="1.1" id="Layer_1" xmlns="http://www.w3.org/2000/svg" xmlns:xlink="http://www.w3.org/1999/xlink" x="0px" y="0px"
	 width="273px" height="107px" viewBox="0 0 273 107" enable-background="new 0 0 273 107" xml:space="preserve">
<g>
	<g>
		<path fill="#EF1126" d="M73.336,37.085l13.718,8.651l8.807,4.366l-2.183,4.676v18.004l3.508,7.795l-5.222,4.365
			c-3.066-5.771-4.599-14.037-4.599-24.799c0-3.639,0.186-7.123,0.558-10.45L70.617,39.333c-6.033,2.703-9.05,6.188-9.05,10.452
			c0,5.564,1.663,8.346,4.989,8.346c2.441,0,3.87-1.43,4.287-4.287L76.61,49.4l5.923,5.613l-3.429,5.221
			c-0.935,10.6-7.535,15.9-19.797,15.9c-5.716,0-10.755-2.545-15.121-7.639c-3.585-4.156-6.287-9.352-8.105-15.588h6.391
			c0.52,4.158,1.663,7.898,3.43,11.225c3.118,5.82,7.586,8.807,13.406,8.963c4.468,0.156,7.664-1.221,9.587-4.131
			c1.506-2.338,2.286-5.871,2.338-10.602c-2.495,1.717-4.573,2.574-6.235,2.574c-2.962,0-5.508-1.1-7.638-3.303
			c-2.131-2.201-3.195-4.777-3.195-7.729c0-1.969,1.142-4.376,3.429-7.226c1.922-2.382,3.923-4.246,6.002-5.594H30.001v-1.637
			h72.563v1.637H73.336z"/>
		<path fill="#EF1126" d="M122.205,37.085h-5.767v47.779h-7.015V37.085H97.341v-1.637h24.863V37.085z"/>
		<path fill="#EF1126" d="M160.239,37.085v47.857h-7.871V58.007c-6.221-13.272-12.514-19.908-18.887-19.908
			c-3.316,0-5.597,0.909-6.839,2.728c-1.037,1.455-1.554,3.924-1.554,7.405c2.961-1.299,5.326-1.949,7.094-1.949
			c2.857,0,5.246,0.598,7.169,1.792c2.338,1.403,3.508,3.458,3.508,6.159c0,4.729-3.145,9.041-9.431,12.938l-6.547-4.988
			c1.766-1.35,3.507-2.805,5.222-4.365c2.805-2.545,4.209-4.648,4.209-6.313c0-2.182-1.611-3.273-4.833-3.273
			c-4.208,0-7.95,2.988-11.223,8.962c-1.818-3.273-2.729-6.807-2.729-10.6c0-7.533,4.873-11.302,14.62-11.302
			c3.836,0,7.543,1.689,11.122,5.066c2.643,2.494,5.676,6.469,9.1,11.925V35.292h15.742v1.793H160.239z"/>
		<path fill="#EF1126" d="M200.065,37.242v47.701h-7.561c-0.053-5.086-0.885-9-2.494-11.75c-2.182-3.736-6.131-6.408-11.848-8.016
			c-0.934-0.258-4.104-1.037-9.508-2.334l-2.416-6.77l26.656-9.727v-9.104h-33.982v-1.793h49.102v1.793H200.065z M176.06,87.124
			l-7.674-6.264l7.668-6.016l7.928,6.066L176.06,87.124z M192.896,50.491l-21.668,6.547c9.455,2.65,16.68,7.977,21.668,15.979
			V50.491z"/>
		<path fill="#EF1126" d="M245.271,37.085v47.779h-7.482v-32.58c-7.691-9.924-14.574-14.887-20.654-14.887
			c-3.119,0-5.586,1.534-7.404,4.6c-1.561,2.598-2.34,5.561-2.34,8.883c0,2.807,0.52,5.484,1.561,8.029
			c1.453,3.533,3.48,5.299,6.078,5.299c3.533,0,5.301-1.947,5.301-5.846c0-1.869-0.363-3.947-1.09-6.234h4.363
			c0.832,1.508,1.246,3.092,1.246,4.754c0,2.703-0.947,4.898-2.844,6.586c-1.896,1.689-4.223,2.533-6.977,2.533
			c-4.52,0-8.027-1.379-10.521-4.141c-2.494-2.76-3.74-6.434-3.74-11.018c0-4.532,1.313-8.206,3.936-11.018
			c2.623-2.813,6.168-4.22,10.639-4.22c7.064,0,14.549,4.547,22.447,13.64V35.449H254.7v1.637H245.271z"/>
	</g>
	<rect x="131.822" y="40.88" fill="none" width="116.669" height="3.021"/>
</g>
</svg>
